<svg xmlns="http://www.w3.org/2000/svg" viewBox="0 0 66.88 132.9"><defs><style>.cls-1,.cls-2{fill:#231f20;}.cls-2{font-size:19.13px;font-family:CourierNewPSMT, Courier New;}</style></defs><g id="Layer_2" data-name="Layer 2"><path class="cls-1" d="M359.54,344.29a130.56,130.56,0,0,1-4.06-12.67l-3.67,2.82c2.24,1.16,4.34,2.56,6.69,3.53a11.86,11.86,0,0,0,3.71.9,4.87,4.87,0,0,0,3.94-1.58c3.25-3.18,3.6-8.34,7.09-11.23l-3.93-.51a90,90,0,0,1,5.73,13,2.53,2.53,0,0,0,4.18,1.1l6.2-6.31-3.93-3c-2.28,3.91.59,7.71,4.35,9.09a10.66,10.66,0,0,0,6,0c2-.48,4-1.34,6.11-1.21L396.22,334a42.77,42.77,0,0,0-7.8,10c-1.6,2.8,2.72,5.32,4.32,2.52a38,38,0,0,1,7-8.94c1.66-1.57.3-4.15-1.77-4.27a14.87,14.87,0,0,0-4.86.67,17.36,17.36,0,0,1-4.3,1,3.59,3.59,0,0,1-2.57-.84,2.15,2.15,0,0,1-.67-.83c.08.19,0,.34,0-.1,0,.24.2-.28.19-.26,1.41-2.43-1.92-5.07-3.93-3l-6.2,6.32,4.18,1.1A97.24,97.24,0,0,0,373.63,323a2.53,2.53,0,0,0-3.93-.5c-3.24,2.69-3.92,6.87-6.22,10.2a5.25,5.25,0,0,1-.63.78s-.61.58-.61.59c-.11-.16,1.11-.07.29-.22a11.62,11.62,0,0,1-2.45-.63c-2-.86-3.82-2.13-5.75-3.13a2.53,2.53,0,0,0-3.67,2.83,130.56,130.56,0,0,0,4.06,12.67,2.57,2.57,0,0,0,3.08,1.75,2.52,2.52,0,0,0,1.74-3.08Z" transform="translate(-339.21 -320.02)"/><path class="cls-1" d="M368.51,345.69c3.22,0,3.22-5,0-5s-3.22,5,0,5Z" transform="translate(-339.21 -320.02)"/><path class="cls-1" d="M399.18,372.33a5,5,0,0,0,1.75,1.84c.79.49,1.73.55,2.53,1l-.13-1c-1.92,1.56-3.91,3.27-4.56,5.77a.63.63,0,0,0,1.21.33c.59-2.27,2.49-3.8,4.23-5.22a.63.63,0,0,0-.12-1c-.74-.4-1.59-.47-2.32-.87a3.69,3.69,0,0,1-1.51-1.52c-.39-.7-1.47-.07-1.08.64Z" transform="translate(-339.21 -320.02)"/><path class="cls-1" d="M399.47,373.69a8.22,8.22,0,0,0,1.18,1.11,3.27,3.27,0,0,0,1.55.61l-.44-1.06s-.19.16-.1.09a.71.71,0,0,1-.14.1l-.37.22a4,4,0,0,0-.74.5,3.07,3.07,0,0,0-.91,1.5l1.23.17-.09-2.72-.94.54.21.14q.09.08,0,0l.09.08a3.15,3.15,0,0,1,.37.36.64.64,0,0,0,.89,0,.65.65,0,0,0,0-.89,5.66,5.66,0,0,0-1-.8.63.63,0,0,0-.94.54l.09,2.72a.62.62,0,0,0,.54.61.61.61,0,0,0,.68-.45l.06-.19,0-.08c0,.05,0,.06,0,0s.11-.22.18-.33.12-.15,0-.06l.11-.13.12-.12s.16-.13.11-.1l.11-.07.18-.11.31-.17a3.26,3.26,0,0,0,.7-.52.62.62,0,0,0,.13-.68.65.65,0,0,0-.57-.39h-.06l-.16,0-.16-.06c.09,0,0,0,0,0a1.82,1.82,0,0,1-.27-.15l-.14-.09s-.16-.12-.06,0a8.62,8.62,0,0,1-1-.94.62.62,0,0,0-.88.88Z" transform="translate(-339.21 -320.02)"/><path class="cls-1" d="M383.36,360.1a6.29,6.29,0,0,1,3,2.94c.61,1.18,1.27,3.1.17,4.2l.89.89a7.31,7.31,0,0,0,1.21-2.27l-.92.37c.76.55.45,2.25.44,3l0,3.63c0,1,.07,2.32-.75,3.05-1.29,1.17-1.76-.8-2-1.71a40.11,40.11,0,0,1-.95-7c-.07-1.2-.1-2.41-.11-3.62,0-.55,0-1.1,0-1.65,0-.24-.13-1.48.16-1.59a.64.64,0,0,0,.15-1.15,1.43,1.43,0,0,0-2.06.41,3.15,3.15,0,0,0-.22,1.49c0,.72,0,1.45,0,2.17a12.56,12.56,0,0,0,2,7.27.64.64,0,0,0,1.15-.15,20.21,20.21,0,0,0,.9-6.6l-1.06.44a8.29,8.29,0,0,1,1.53,1.91.63.63,0,0,0,1.17-.31,8.4,8.4,0,0,0-.54-2.48l-1,.61a6.94,6.94,0,0,1,1.3,6.28l1.14-.15a22.3,22.3,0,0,1-1.41-4.15.63.63,0,0,0-1.23.16,5.79,5.79,0,0,0,.26,1.85.63.63,0,0,0,1.21,0,1.42,1.42,0,0,0-.68-1.67.63.63,0,0,0-.92.38c-.27.9-.51,1.82-.7,2.75h1.21l-.87-3.46a7.19,7.19,0,0,0-1-2.81.63.63,0,0,0-1.05.28,9.72,9.72,0,0,0,.07,5.16c.16.56,1.09.63,1.2,0a20.88,20.88,0,0,0,.05-7.52l-1.14.49,1.54,2.13c.39.55,1.36.25,1.14-.48l-.18-.58a.62.62,0,0,0-1.2.33c.49,2.29.15,4.61,0,6.92a27.3,27.3,0,0,0,.47,6.63l1.21-.33-1.55-5.28-1,.61a1.39,1.39,0,0,0,1.75.22c.85-.47.92-1.42,1.33-2.2l-.85.22c.84.64.79,1.92.77,2.87,0,1.2-.07,2.65-1.18,3.38l.94.54c0-1.95.08-3.9.25-5.84l-1.23.16a9.94,9.94,0,0,1,.25,3.72c-.1.8,1.15.79,1.25,0a10.84,10.84,0,0,0-.29-4.05.63.63,0,0,0-1.23.17c-.17,1.94-.26,3.89-.25,5.84a.63.63,0,0,0,.94.54c1.53-1,1.76-2.76,1.8-4.46,0-1.49-.12-3-1.39-3.95a.63.63,0,0,0-.86.23c-.13.25-.73,2.15-1.12,1.73a.63.63,0,0,0-1.05.61l1.55,5.27a.63.63,0,0,0,1.21-.33,26.54,26.54,0,0,1-.39-6.95,23.16,23.16,0,0,0-.11-6.6l-1.2.33.17.59,1.15-.49L385,360.94a.63.63,0,0,0-1.15.49,19.17,19.17,0,0,1,0,6.84H385a8.35,8.35,0,0,1-.06-4.49l-1.05.27a3.79,3.79,0,0,1,.47,1.47l.35,1.42.71,2.83a.63.63,0,0,0,1.21,0c.19-.93.42-1.84.7-2.75l-.92.37.1.26h1.21a4.63,4.63,0,0,1-.22-1.52l-1.22.17a22.85,22.85,0,0,0,1.54,4.46.63.63,0,0,0,1.14-.15,8.27,8.27,0,0,0-1.63-7.5.62.62,0,0,0-1,.6,7.3,7.3,0,0,1,.49,2.15l1.16-.32a9,9,0,0,0-1.73-2.16.64.64,0,0,0-1.07.44,19,19,0,0,1-.86,6.27l1.14-.15a10,10,0,0,1-1.74-4.81,21.6,21.6,0,0,1-.11-2.67c0-.44,0-.89,0-1.33,0-.27-.11-1.19.4-.82l.15-1.14c-1.28.48-1.07,2-1.08,3.13,0,1.76,0,3.52.13,5.27a45,45,0,0,0,.58,5.06c.23,1.3.38,3,1.2,4.07a2.07,2.07,0,0,0,3,.38,4.22,4.22,0,0,0,1.4-3.41c.07-1.81,0-3.63.05-5.44,0-1.18,0-2.34-1.07-3.08a.64.64,0,0,0-.92.38,5.37,5.37,0,0,1-.89,1.71c-.47.62.3,1.47.89.89,1.37-1.37,1-3.46.32-5.08a7.58,7.58,0,0,0-3.75-4c-.73-.33-1.37.75-.63,1.08Z" transform="translate(-339.21 -320.02)"/><path class="cls-1" d="M386.54,342.76c3.22,0,3.22-5,0-5s-3.22,5,0,5Z" transform="translate(-339.21 -320.02)"/><path class="cls-1" d="M383.59,332a7.45,7.45,0,0,0,2.06-1.73l-2.13-.88a13.64,13.64,0,0,0,.39,4c.3,1.22.86,2.36,1.18,3.57a1.25,1.25,0,0,0,2.41-.66c-.31-1.18-.84-2.27-1.15-3.45-.07-.28-.13-.56-.18-.85a4.71,4.71,0,0,1-.09-.52c0,.2,0-.19,0-.2a12.84,12.84,0,0,1,0-1.86,1.27,1.27,0,0,0-2.14-.89,6.74,6.74,0,0,1-.78.82l-.11.09-.16.12c-.16.11-.33.21-.5.31a1.25,1.25,0,0,0,1.26,2.16Z" transform="translate(-339.21 -320.02)"/><path class="cls-1" d="M356.14,338.34c3.21,0,3.22-5,0-5s-3.23,5,0,5Z" transform="translate(-339.21 -320.02)"/><path class="cls-1" d="M351.69,331.87a12.84,12.84,0,0,0-1.34-3.33v.63l0-.05-.38.28h-.27s.21.14.3.18a3.17,3.17,0,0,0,.41.21,7.41,7.41,0,0,0,.93.35c.61.18,1.24.3,1.84.5a3.71,3.71,0,0,1,1.51.91,9.81,9.81,0,0,1,1.2,1.67c.42.68,1.51.05,1.08-.63a10.74,10.74,0,0,0-1.47-2,5.21,5.21,0,0,0-2-1.17c-.68-.22-1.4-.35-2.08-.58a4.58,4.58,0,0,1-1-.47.77.77,0,0,0-1.17.18.64.64,0,0,0,0,.63,12.1,12.1,0,0,1,1.22,3,.62.62,0,0,0,1.2-.33Z" transform="translate(-339.21 -320.02)"/><path class="cls-1" d="M351.35,330.73a.63.63,0,0,0,0-1.25.63.63,0,0,0,0,1.25Z" transform="translate(-339.21 -320.02)"/><path class="cls-1" d="M367.59,327.18a19.68,19.68,0,0,1,4.65-6.1l-1-.13,1.34,2.48c.39.71,1.47.08,1.08-.63l-1.34-2.48a.64.64,0,0,0-1-.13,20.51,20.51,0,0,0-4.85,6.36c-.36.72.72,1.35,1.08.63Z" transform="translate(-339.21 -320.02)"/><path class="cls-1" d="M381.7,331.55l2.26-2.23a3.87,3.87,0,0,1,2.26-1.39l-.54-.94a8.26,8.26,0,0,0,.15,7.07c.36.72,1.44.09,1.08-.63a6.9,6.9,0,0,1-.15-5.81c.17-.39,0-1-.54-.94a4.76,4.76,0,0,0-2.89,1.5l-2.52,2.49c-.57.56.31,1.45.89.88Z" transform="translate(-339.21 -320.02)"/><path class="cls-1" d="M385.7,334a2.51,2.51,0,0,0,1.69,1.82.62.62,0,0,0,.48-.07.64.64,0,0,0,.29-.37.62.62,0,0,0-.07-.48.64.64,0,0,0-.37-.29l-.19-.06.15.06a1.51,1.51,0,0,1-.35-.2l.13.09a1.48,1.48,0,0,1-.33-.33l.09.13a2.13,2.13,0,0,1-.27-.46l.07.15a2,2,0,0,1-.11-.32.69.69,0,0,0-.29-.38.62.62,0,0,0-.48-.06.65.65,0,0,0-.44.77Z" transform="translate(-339.21 -320.02)"/><path class="cls-1" d="M386,334.31a3.34,3.34,0,0,0,1.77,1.48.62.62,0,0,0,.48-.06.66.66,0,0,0,.29-.37.65.65,0,0,0-.06-.49.71.71,0,0,0-.38-.28l-.13-.06.15.07a2.77,2.77,0,0,1-.55-.33l.12.1a3,3,0,0,1-.5-.5l.1.13a2.2,2.2,0,0,1-.21-.32.65.65,0,0,0-.38-.29.66.66,0,0,0-.48.06.64.64,0,0,0-.22.86Z" transform="translate(-339.21 -320.02)"/><path class="cls-1" d="M397.81,333.92a8.59,8.59,0,0,1,4.47.36,5.23,5.23,0,0,1,2.66,2.46l.54-.94c-2.67-.15-6-.28-7.6,2.27-.43.68.65,1.3,1.08.63a3.78,3.78,0,0,1,2.62-1.58,17.53,17.53,0,0,1,3.9-.07.63.63,0,0,0,.54-.94,6.45,6.45,0,0,0-3.26-3,10.08,10.08,0,0,0-5.28-.42.63.63,0,0,0-.44.77.65.65,0,0,0,.77.44Z" transform="translate(-339.21 -320.02)"/><path class="cls-1" d="M356.13,338.61l1.44,3.52a7,7,0,0,0,1.25,2.51c1.92,1.79,4.05-.55,5.22-2,1.51-1.85,2.94-3.77,4.36-5.68.68-.91,1.36-1.83,2-2.75.55-.76,1.26-2.31,2.13-2.68l-2.82-1.62c.07.78-1.18,1.64-1.69,2.16-.78.8-1.58,1.61-2.39,2.39s-1.63,1.52-2.49,2.24c-.57.48-1.65,1.64-2.47,1.44l-.5,3.68a.75.75,0,0,1-.28-.15c.07.15.33.34.45.48s.46.56.72.82a3.68,3.68,0,0,0,2.63,1.18,4.14,4.14,0,0,0,2.57-1.11c.41-.32.94-1,1.39-1l-1.81-2.37a2,2,0,0,1-.66.94,1.91,1.91,0,0,0,.45,3.43c2.5.86,4-1.73,4.86-3.64.53-1.25,1.41-4.77,3.12-5l-1.81-2.38a26.87,26.87,0,0,1-1.42,5.07,13.16,13.16,0,0,0-1.15,4.89,1.92,1.92,0,0,0,1.88,1.87c3.36.35,4.51-4.8,5.45-7.09H373a14.65,14.65,0,0,1,.08,5.24,2.35,2.35,0,0,0,2.46,2.86,4.33,4.33,0,0,0,2.94-1.61c.53-.6,1.11-1.76,1.91-1.93l-2.31-2.3-.56,3.18a1.89,1.89,0,0,0,3.14,1.82c2-1.66,1.07-4.91,3.24-6.41l-2.82-1.62a17.29,17.29,0,0,1-.52,3.73,3.75,3.75,0,0,0,.28,3.27c2,2.63,4.54-.62,5.91-2.06h-2.65c-.48-.6-.36-1.07-.42,0a3.23,3.23,0,0,0,.07,1.16,2.58,2.58,0,0,0,1.61,1.69c2,.76,3.75-.51,5.22-1.73s2.95-2.55,4.46-3.78a8.39,8.39,0,0,1,4.61-2.24c2.4-.11,2.42-3.86,0-3.75-3.44.16-6.06,2.28-8.56,4.44a27.7,27.7,0,0,1-4,3.32.89.89,0,0,1-.4.2c-.45.1-.2.37.74.83a2.13,2.13,0,0,0,.1-.82,2.81,2.81,0,0,0-.76-2,1.9,1.9,0,0,0-2.65,0,14,14,0,0,1-1.84,2h1l.57.39.25.95a9.34,9.34,0,0,1,.43-2.43,22.82,22.82,0,0,0,.32-3.2,1.89,1.89,0,0,0-2.83-1.61,7.59,7.59,0,0,0-2.85,3.57c-.38,1-.3,2.73-1.15,3.42l3.14,1.82.56-3.18a1.9,1.9,0,0,0-2.31-2.3,5,5,0,0,0-2.67,1.79c-.3.36-.58.74-.89,1.09,0,.05-.56.53-.56.57s-.25-.58.64.06l.86,1.12A6.59,6.59,0,0,1,377,342c0-.54.06-1.09,0-1.63a17.71,17.71,0,0,0-.43-3.48c-.43-2-3-1.54-3.62,0l-1.22,3a9.79,9.79,0,0,1-.48,1c-.06.11-.12.22-.19.33s-.11.15.06,0l1.87,1.88a12.24,12.24,0,0,1,1.17-4.3,25.88,25.88,0,0,0,1.26-4.66c.19-1.06-.48-2.53-1.8-2.37a6.34,6.34,0,0,0-4.81,3.37A21.18,21.18,0,0,0,367.5,338c-.21.51-.41,1-.66,1.51a7.58,7.58,0,0,1-.4.74q-.39.39.21.21l.45,3.43a6.53,6.53,0,0,0,2.39-3.18c.46-1.24-.71-2.28-1.81-2.38a3.77,3.77,0,0,0-2.46.78c-.4.28-.76.62-1.14.92-.14.12-.64.36-.37.4s-.06-.18-.15-.31a6.43,6.43,0,0,0-.81-.92,3.47,3.47,0,0,0-2.55-1.13c-2.08,0-2.59,3.16-.5,3.68,3.29.82,6.12-2.28,8.29-4.33,1.2-1.14,2.35-2.32,3.5-3.51s2.16-2.34,2-4a1.91,1.91,0,0,0-2.82-1.62c-1.26.54-2,2-2.76,3-.91,1.25-1.82,2.5-2.74,3.73s-1.76,2.34-2.65,3.49c-.46.6-.92,1.2-1.4,1.77-.29.34-.8,1.15-1.21,1.27h1c.59.55.77.62.55.19l-.27-.66-.45-1.1-1-2.42a1.93,1.93,0,0,0-2.3-1.31,1.88,1.88,0,0,0-1.31,2.31Z" transform="translate(-339.21 -320.02)"/><path class="cls-1" d="M401,334.69a4.7,4.7,0,0,0,2.34,1.3.63.63,0,0,0,.74-.36.65.65,0,0,0-.25-.79,3.29,3.29,0,0,0-1.73-.48,2.19,2.19,0,0,0-.87.18,1.08,1.08,0,0,0-.59.74.64.64,0,0,0,.28.71,2.31,2.31,0,0,0,.89.24.63.63,0,0,0,0-1.25h0l-.14,0-.11,0,.06,0-.08,0,.29.7,0-.06s-.08.14,0,.07l-.05.06s0,0,0,0-.06.05-.06,0l.06,0s.09,0,0,0,0,0,0,0l.11,0h.5l.3.08.15,0s.13.06,0,0,0,0,0,0l.3.16.48-1.14a5.12,5.12,0,0,1-.56-.15l-.14-.06.08,0-.07,0-.26-.13-.48-.31,0,0-.06-.05-.12-.1-.22-.22a.63.63,0,0,0-.89.89Z" transform="translate(-339.21 -320.02)"/></g><g id="Layer_1" data-name="Layer 1"><path class="cls-1" d="M348.27,373c-1.22-7.47-1.17-17,4.77-22.56a14.25,14.25,0,0,1,5-3c2.7-.95,5.77-.94,8.61-1,6.12-.05,12.21.66,18.33.58,1.87,0,3.65-.44,5.39.47A8.9,8.9,0,0,1,393.7,351a26,26,0,0,1,3.16,10.57c.28,2.77.28,5.57.41,8.35.15,3.19.31,6.39.47,9.58.31,6.15.62,12.3.88,18.45.58,13.59.87,27.22.13,40.81-.09,1.61,2.41,1.6,2.5,0,.71-12.95.48-25.93-.05-38.88-.26-6.55-.6-13.1-.93-19.65-.16-3.35-.33-6.71-.49-10.06-.13-2.9-.13-5.84-.43-8.73-.7-6.48-3.59-17.53-12.05-17-6.32.41-12.63-.35-18.95-.43-5.38-.07-11,.06-15.45,3.37-8.11,5.95-8.51,17.27-7,26.33.26,1.58,2.67.91,2.41-.67Z" transform="translate(-339.21 -320.02)"/><text class="cls-2" transform="translate(0 73.99) scale(1.04 1)">THE<tspan x="0" y="22.95">COZY</tspan><tspan x="0" y="45.9">COOP</tspan></text><path class="cls-1" d="M386.09,371c3.22,0,3.23-5,0-5s-3.22,5,0,5Z" transform="translate(-339.21 -320.02)"/><path class="cls-1" d="M382.52,365.87a47.5,47.5,0,0,0,1.14,6.26.63.63,0,0,0,1.21-.34,43.77,43.77,0,0,1-1.1-5.92.64.64,0,0,0-.62-.62.63.63,0,0,0-.63.62Z" transform="translate(-339.21 -320.02)"/><path class="cls-1" d="M389.33,366.44a13.42,13.42,0,0,0-2.6-6.16,3.8,3.8,0,0,0-2.59-1.57,1.57,1.57,0,0,0-1.45,2.09.64.64,0,0,0,.77.43.63.63,0,0,0,.43-.77c-.06-.17-.07-.37.11-.47s.61.1.81.22a5.75,5.75,0,0,1,1.58,1.68,14.31,14.31,0,0,1,1.73,4.88c.17.78,1.38.45,1.21-.33Z" transform="translate(-339.21 -320.02)"/><path class="cls-1" d="M371.29,326.3c3.22,0,3.22-5,0-5s-3.22,5,0,5Z" transform="translate(-339.21 -320.02)"/><path class="cls-1" d="M362.28,345c4,.11,8-.48,12.05-.09S382,346.34,385.9,346a2.58,2.58,0,0,0,2.5-2.5,2.51,2.51,0,0,0-2.5-2.5c-3.91.39-7.71-.69-11.57-1.07s-8,.2-12.05.09c-3.22-.09-3.22,4.91,0,5Z" transform="translate(-339.21 -320.02)"/><path class="cls-1" d="M380.89,330.66l-.27.28a.39.39,0,0,0-.13.2.48.48,0,0,0-.06.24.53.53,0,0,0,.06.24.44.44,0,0,0,.13.2l.12.1a.72.72,0,0,0,.32.08l.16,0a.61.61,0,0,0,.28-.16l.27-.27a.49.49,0,0,0,.13-.2.53.53,0,0,0,.06-.24.48.48,0,0,0-.06-.24.46.46,0,0,0-.13-.21l-.12-.09a.62.62,0,0,0-.32-.09l-.17,0a.74.74,0,0,0-.27.16Z" transform="translate(-339.21 -320.02)"/><path class="cls-1" d="M380.86,332.31a.63.63,0,0,0,0-1.25.63.63,0,0,0,0,1.25Z" transform="translate(-339.21 -320.02)"/><path class="cls-1" d="M388,335.88a9.89,9.89,0,0,0,1.95-.17,6.38,6.38,0,0,0,1.78-.45.62.62,0,0,0,.23-.85.64.64,0,0,0-.86-.23l-.11,0-.21.07-.36.09-.8.13-.38.05-.14,0h0l-.23,0a5.06,5.06,0,0,1-.87,0,.63.63,0,1,0,0,1.25Z" transform="translate(-339.21 -320.02)"/><path class="cls-1" d="M391.82,335.37a17.52,17.52,0,0,1,5.86-1.41.63.63,0,0,0,0-1.25,18.46,18.46,0,0,0-6.19,1.45.65.65,0,0,0-.44.77.64.64,0,0,0,.77.44Z" transform="translate(-339.21 -320.02)"/><path class="cls-1" d="M391.71,335.35l.42-.15a.53.53,0,0,0,.21-.11.49.49,0,0,0,.17-.18.48.48,0,0,0,.07-.23.53.53,0,0,0,0-.25l-.06-.15a.61.61,0,0,0-.23-.22l-.15-.06a.62.62,0,0,0-.33,0l-.43.15a.53.53,0,0,0-.21.11.46.46,0,0,0-.16.18.39.39,0,0,0-.07.23.43.43,0,0,0,0,.25l.06.15a.58.58,0,0,0,.22.22l.15.06a.65.65,0,0,0,.34,0Z" transform="translate(-339.21 -320.02)"/><path class="cls-1" d="M398.15,337.67l-2.25,2.42a.63.63,0,0,0,.89.88l2.24-2.41a.65.65,0,0,0,0-.89.64.64,0,0,0-.88,0Z" transform="translate(-339.21 -320.02)"/><path class="cls-1" d="M398,337.85q-2.7,3.43-5.6,6.68c-.53.6.35,1.48.89.88q2.89-3.24,5.59-6.68a.64.64,0,0,0,0-.88.62.62,0,0,0-.88,0Z" transform="translate(-339.21 -320.02)"/><path class="cls-1" d="M404.19,336a.63.63,0,0,0,0-1.25.63.63,0,0,0,0,1.25Z" transform="translate(-339.21 -320.02)"/></g></svg>