<?xml version="1.0" standalone="no"?>
<!DOCTYPE svg PUBLIC "-//W3C//DTD SVG 20010904//EN"
 "http://www.w3.org/TR/2001/REC-SVG-20010904/DTD/svg10.dtd">
<svg version="1.0" xmlns="http://www.w3.org/2000/svg"
 width="1064.000000pt" height="1064.000000pt" viewBox="0 0 1064.000000 1064.000000"
 preserveAspectRatio="xMidYMid meet">
<metadata>
Created by potrace 1.14, written by Peter Selinger 2001-2017
</metadata>
<g transform="translate(0.000000,1064.000000) scale(0.100000,-0.100000)"
fill="#000000" stroke="none">
<path d="M5152 10553 c-87 -88 -137 -147 -204 -244 -58 -85 -121 -198 -123
-224 -2 -20 -35 -93 -117 -260 -76 -155 -128 -237 -178 -278 l-30 -26 -70 20
c-116 32 -217 79 -369 170 -34 22 -65 39 -68 39 -2 0 -18 14 -36 31 -54 51
-144 97 -223 114 -13 3 -36 8 -51 11 -15 3 -61 21 -103 41 -68 33 -77 34 -100
21 -37 -20 -36 -51 3 -131 31 -65 69 -173 81 -231 3 -11 21 -77 41 -146 19
-69 37 -134 40 -145 3 -11 14 -49 25 -85 12 -36 39 -121 61 -190 22 -69 44
-133 49 -142 6 -10 10 -27 10 -37 0 -11 5 -23 10 -26 6 -3 10 -15 10 -26 0
-10 4 -27 9 -37 5 -9 27 -65 48 -123 l39 -106 -40 -24 c-23 -13 -45 -26 -51
-28 -23 -9 -174 -133 -229 -187 -53 -54 -174 -208 -204 -261 -114 -205 -180
-402 -226 -678 -28 -162 -28 -667 -1 -827 2 -13 9 -61 15 -108 19 -137 43
-173 112 -164 34 4 78 32 78 50 0 8 5 14 11 14 10 0 7 62 -7 135 -2 11 -6 45
-10 75 -3 30 -7 66 -9 80 -29 194 -24 593 11 764 2 12 7 35 9 51 3 17 15 66
26 109 97 382 305 663 610 824 74 39 224 95 284 105 17 3 44 8 60 11 153 29
604 39 950 22 77 -3 187 -9 245 -11 58 -3 146 -8 195 -11 50 -3 268 -7 486 -8
381 -2 396 -3 425 -23 16 -11 43 -24 59 -28 17 -5 33 -9 38 -10 4 -2 15 -3 26
-4 24 -1 160 -132 198 -191 52 -78 135 -249 168 -345 9 -27 21 -59 25 -70 16
-38 49 -160 64 -235 36 -182 46 -295 60 -680 7 -181 17 -402 21 -475 2 -33 7
-123 10 -200 3 -77 7 -167 10 -200 2 -33 6 -121 9 -195 4 -74 8 -164 11 -200
2 -36 7 -128 10 -205 4 -77 8 -171 10 -210 2 -38 6 -126 9 -195 4 -69 8 -170
11 -225 5 -96 12 -276 20 -455 1 -47 6 -159 10 -250 21 -519 28 -870 28 -1535
0 -623 -3 -823 -19 -1165 -13 -288 -12 -297 16 -317 37 -27 62 -31 100 -19 52
17 71 52 75 137 2 41 6 126 9 189 3 63 9 198 13 300 9 223 8 1529 -1 1795 -3
105 -8 255 -11 335 -6 207 -20 556 -30 770 -2 58 -7 159 -10 225 -7 152 -13
281 -20 415 -3 58 -8 150 -10 205 -3 55 -8 147 -10 205 -14 279 -16 255 19
312 36 60 54 83 111 142 32 32 163 148 184 163 11 8 1 56 -15 68 -15 11 -97
42 -134 50 -3 0 -23 9 -45 20 -35 16 -65 44 -145 133 -22 25 -25 58 -35 402
-5 171 -13 316 -21 370 -3 19 -7 60 -10 90 -3 30 -6 64 -8 75 -44 255 -104
477 -162 603 -13 29 -24 56 -24 61 0 14 -84 164 -130 231 -24 36 -74 96 -112
134 l-68 68 22 37 c19 32 97 129 137 170 7 8 82 99 167 201 174 212 228 270
249 270 8 0 15 4 15 8 0 26 146 46 319 43 121 -1 141 5 141 44 0 31 -61 120
-118 173 -54 50 -164 107 -237 123 -67 15 -273 21 -316 9 -19 -5 -65 -12 -103
-15 -68 -6 -197 -38 -361 -88 -102 -32 -130 -37 -235 -44 l-85 -5 -34 32 c-99
96 -129 320 -66 500 8 23 15 48 15 56 0 21 -30 44 -53 40 -70 -13 -140 -41
-174 -69 -53 -45 -275 -271 -281 -286 -6 -17 -138 -161 -160 -174 -5 -4 -19
20 -31 51 -13 31 -27 66 -31 77 -5 11 -23 54 -41 95 -60 142 -121 276 -207
452 -39 79 -80 166 -92 193 -13 28 -30 58 -39 69 -9 10 -14 20 -12 23 2 2 -11
27 -28 54 -44 71 -62 68 -159 -28z"/>
<path d="M6215 7531 c-50 -17 -76 -37 -94 -73 -17 -35 -19 -58 -16 -246 2
-114 6 -225 9 -247 3 -22 8 -60 11 -85 4 -38 12 -87 30 -185 11 -62 48 -231
52 -238 2 -4 11 -45 18 -90 30 -174 58 -250 111 -296 114 -99 271 -16 319 169
17 67 14 670 -4 730 -8 25 -14 52 -15 60 -5 49 -75 213 -130 304 -59 97 -152
179 -218 191 -11 2 -27 6 -36 8 -9 3 -26 2 -37 -2z"/>
<path d="M2760 5520 c-3 -237 3 -270 44 -254 20 8 19 -1 21 129 1 61 4 115 7
120 7 12 244 13 255 2 4 -4 7 -170 7 -368 1 -311 -1 -362 -14 -368 -8 -4 -49
-7 -90 -6 -101 2 -130 -13 -94 -50 14 -13 46 -15 227 -14 117 0 220 3 230 6
20 5 23 38 5 50 -7 4 -53 7 -103 8 l-90 0 -2 115 c-1 63 -2 135 -3 160 0 38
-1 208 -1 248 2 191 4 221 14 224 7 2 66 3 132 3 l120 0 1 -123 c1 -67 3 -125
6 -127 15 -16 48 -12 53 5 5 15 9 249 6 295 -1 8 -119 11 -366 11 l-364 0 -1
-66z"/>
<path d="M3733 5574 c-27 -19 -5 -49 36 -49 17 1 32 -2 32 -5 6 -24 2 -740 -3
-741 -9 -2 -58 -6 -88 -8 -26 -1 -28 -47 -2 -55 29 -9 256 -5 275 5 20 11 22
34 5 46 -7 4 -35 8 -63 8 l-50 0 0 180 0 180 205 0 c113 1 210 0 215 -2 11 -4
13 -333 2 -350 -4 -6 -24 -10 -44 -8 -46 3 -82 -9 -79 -27 5 -36 16 -39 151
-37 138 1 172 9 160 41 -8 20 -33 27 -80 22 l-35 -3 2 377 3 376 30 2 c17 1
33 2 38 3 12 2 8 49 -5 54 -7 2 -66 4 -130 3 -126 -1 -148 -9 -129 -44 8 -16
20 -19 61 -18 28 2 54 -2 57 -7 3 -6 7 -78 7 -160 1 -119 -2 -151 -13 -155
-11 -4 -331 -7 -404 -3 -16 1 -17 14 -15 163 l3 162 54 1 c40 0 57 4 65 17 21
33 -7 43 -129 44 -81 1 -120 -2 -132 -12z"/>
<path d="M4633 5562 c-7 -31 0 -36 56 -37 26 -1 52 -4 57 -8 12 -7 16 -736 5
-738 -3 0 -27 -2 -52 -3 -25 -2 -51 -6 -57 -10 -18 -11 -14 -44 6 -50 9 -3
180 -5 380 -5 l362 1 0 128 c0 142 -4 160 -31 160 -28 0 -36 -27 -34 -123 1
-53 -3 -91 -9 -95 -13 -8 -485 -10 -487 -2 -1 3 -2 83 -3 178 -2 115 1 172 8
173 15 1 198 1 214 0 8 -1 13 -12 12 -28 -5 -71 10 -94 48 -74 15 8 17 26 16
125 -2 151 -1 144 -25 151 -30 10 -42 -7 -42 -59 0 -26 -5 -46 -11 -47 -32 -3
-202 -4 -212 -1 -6 2 -10 59 -10 165 l1 161 230 0 230 0 5 -92 c5 -102 21
-129 51 -93 13 16 16 43 15 133 l-1 113 -358 0 -358 1 -6 -24z"/>
<path d="M3035 3758 c-134 -43 -232 -142 -270 -275 -19 -64 -22 -262 -5 -325
34 -126 194 -278 310 -293 14 -2 25 -4 25 -5 0 -8 109 -7 147 0 112 22 258
126 258 183 0 42 -33 34 -89 -20 -45 -44 -63 -55 -141 -92 -34 -16 -113 -20
-170 -9 -106 21 -204 99 -255 203 -27 56 -29 67 -29 190 0 128 0 132 32 195
18 36 47 81 65 101 96 108 277 126 411 42 50 -32 66 -53 87 -111 14 -44 34
-58 58 -43 12 8 17 204 6 234 -11 26 -44 21 -55 -8 -5 -14 -9 -29 -9 -33 3
-21 -4 -21 -33 1 -34 25 -80 48 -134 65 -39 12 -170 12 -209 0z"/>
<path d="M3979 3755 c-52 -19 -102 -45 -120 -64 -9 -9 -27 -25 -40 -37 -34
-29 -68 -71 -63 -77 2 -2 -2 -10 -11 -17 -8 -7 -15 -16 -15 -21 0 -4 -5 -20
-12 -36 -48 -119 -42 -292 15 -416 30 -66 122 -164 182 -194 117 -59 264 -51
370 20 106 71 188 223 194 360 1 9 2 23 2 30 3 36 -14 140 -31 186 -42 115
-114 197 -216 246 -48 23 -75 29 -139 31 -47 1 -95 -3 -116 -11z m229 -75 c52
-23 118 -91 153 -156 23 -43 31 -66 46 -124 5 -19 5 -160 0 -180 -20 -90 -71
-178 -135 -236 -60 -54 -176 -83 -247 -62 -16 5 -38 11 -48 13 -61 14 -173
132 -197 210 -7 22 -16 50 -21 62 -13 34 -3 203 14 249 48 130 127 210 237
241 56 15 140 8 198 -17z"/>
<path d="M4754 3618 c1 -73 5 -139 9 -145 14 -21 46 -15 52 10 3 12 6 63 8
112 l2 90 213 1 c116 1 212 0 212 -2 0 -3 -60 -90 -82 -119 -22 -28 -301 -404
-336 -453 -9 -13 -37 -50 -63 -83 -39 -52 -45 -65 -44 -107 l1 -47 308 0 c281
0 309 2 315 17 5 14 6 152 2 270 -1 29 -35 48 -53 30 -6 -6 -11 -63 -12 -129
l-1 -118 -247 -3 c-137 -1 -248 0 -248 3 0 2 53 76 117 162 64 87 150 203 190
258 41 55 79 107 86 115 7 8 23 31 37 50 13 19 27 37 30 40 35 32 64 89 67
132 l3 48 -284 0 -283 0 1 -132z"/>
<path d="M5600 3735 c-20 -24 -4 -45 34 -45 31 0 39 -6 73 -56 21 -31 44 -62
51 -69 6 -8 12 -17 12 -22 1 -4 14 -24 30 -43 17 -19 30 -40 30 -46 0 -7 4
-14 8 -16 5 -1 33 -40 64 -85 l56 -82 0 -166 0 -165 -98 0 c-107 0 -131 -10
-106 -45 13 -18 30 -19 227 -20 208 -1 259 5 259 30 0 25 -27 33 -114 34 -49
1 -92 4 -96 6 -3 2 -5 75 -5 163 l0 160 62 94 c208 312 216 323 256 326 41 4
57 23 37 47 -17 21 -232 22 -249 1 -22 -26 -2 -46 45 -46 24 0 44 -4 44 -8 0
-8 -77 -130 -90 -142 -3 -3 -34 -49 -69 -103 l-64 -98 -21 23 c-12 13 -25 31
-31 40 -24 38 -141 206 -167 239 -15 20 -28 39 -28 42 0 3 18 5 40 4 49 -3 81
22 60 48 -18 22 -232 22 -250 0z"/>
<path d="M3055 1925 c-143 -33 -236 -119 -285 -266 -19 -54 -21 -81 -18 -198
3 -125 5 -141 31 -192 39 -79 127 -173 194 -206 64 -31 164 -52 220 -47 96 10
193 57 259 126 53 55 61 76 31 87 -18 7 -31 0 -78 -44 -81 -74 -136 -98 -234
-101 -102 -3 -161 18 -238 87 -49 43 -93 105 -104 144 -17 64 -20 97 -18 189
2 60 8 119 15 134 55 118 92 162 165 201 44 23 62 26 145 26 80 0 103 -4 145
-25 72 -35 120 -88 129 -139 6 -39 9 -42 34 -39 l27 3 3 114 c3 119 -4 143
-38 134 -22 -6 -32 -28 -25 -61 4 -21 2 -21 -43 10 -93 64 -211 87 -317 63z"/>
<path d="M3996 1923 c-33 -7 -67 -20 -76 -28 -9 -8 -19 -13 -22 -10 -8 8 -112
-95 -141 -140 -43 -66 -69 -160 -71 -257 -1 -49 1 -88 4 -88 4 0 6 -10 5 -22
-2 -29 32 -123 61 -170 49 -77 151 -158 224 -178 42 -11 158 -19 166 -11 2 3
15 6 27 8 43 7 128 57 175 105 49 49 95 127 112 189 9 33 23 131 22 154 -4 66
-16 135 -31 175 -81 213 -257 319 -455 273z m226 -87 c217 -127 257 -456 80
-656 -61 -70 -118 -95 -216 -95 -97 0 -138 17 -211 86 -208 197 -142 590 114
686 22 8 64 12 111 10 60 -3 85 -9 122 -31z"/>
<path d="M4970 1928 c-96 -17 -200 -91 -258 -183 -45 -71 -76 -183 -73 -262 1
-18 2 -41 2 -50 0 -10 5 -43 12 -73 6 -30 11 -60 13 -65 1 -6 12 -29 26 -53
95 -169 240 -246 413 -218 183 29 328 224 328 441 0 109 -6 138 -54 242 -70
156 -245 250 -409 221z m198 -87 c124 -64 203 -217 197 -383 -4 -122 -47 -223
-127 -299 -57 -54 -101 -72 -188 -75 -67 -3 -83 0 -133 25 -135 67 -211 199
-210 366 1 183 86 320 238 382 47 20 172 11 223 -16z"/>
<path d="M5670 1908 c-23 -8 -26 -31 -7 -45 6 -5 35 -11 62 -12 28 -2 52 -5
54 -7 2 -2 4 -170 5 -373 l1 -369 -45 3 c-56 3 -77 -3 -84 -22 -12 -31 13 -41
107 -43 51 -1 97 -2 102 -2 6 0 35 1 65 2 30 1 60 1 65 0 28 -7 94 2 111 14
18 14 18 16 2 32 -14 14 -38 17 -137 18 l-121 1 0 147 0 147 113 -1 c143 0
188 7 263 43 107 50 165 148 150 250 -14 93 -97 182 -196 210 -50 13 -476 20
-510 7z m518 -80 c177 -82 161 -277 -28 -348 -21 -7 -91 -14 -172 -16 l-138
-2 0 194 0 194 145 0 c128 0 151 -3 193 -22z"/>
</g>
</svg>
